solid OpenSCAD_Model
  facet normal 0 -1 0
    outer loop
      vertex 30 0 20
      vertex 30 0 0
      vertex 30.01 0 0
    endloop
  endfacet
  facet normal -0 -1 -0
    outer loop
      vertex 30.01 0 20
      vertex 30 0 20
      vertex 30.01 0 0
    endloop
  endfacet
  facet normal -0.864507 0.50262 0
    outer loop
      vertex 15.005 25.9894 0
      vertex 15 25.9808 0
      vertex 15 25.9808 20
    endloop
  endfacet
  facet normal -0.864507 0.50262 0
    outer loop
      vertex 15.005 25.9894 0
      vertex 15 25.9808 20
      vertex 15.005 25.9894 20
    endloop
  endfacet
  facet normal 0 0 1
    outer loop
      vertex 30.01 0 20
      vertex 29.3542 6.23943 20
      vertex 30 0 20
    endloop
  endfacet
  facet normal 0 0 1
    outer loop
      vertex 29.3542 6.23943 20
      vertex 29.3444 6.23735 20
      vertex 30 0 20
    endloop
  endfacet
  facet normal 0.994522 0.10453 -0
    outer loop
      vertex 30.01 0 0
      vertex 29.3542 6.23943 0
      vertex 30.01 0 20
    endloop
  endfacet
  facet normal 0.994522 0.10453 -0
    outer loop
      vertex 29.3542 6.23943 0
      vertex 29.3542 6.23943 20
      vertex 30.01 0 20
    endloop
  endfacet
  facet normal 0 0 -1
    outer loop
      vertex 30 0 0
      vertex 29.3444 6.23735 0
      vertex 30.01 0 0
    endloop
  endfacet
  facet normal 0 0 -1
    outer loop
      vertex 29.3444 6.23735 0
      vertex 29.3542 6.23943 0
      vertex 30.01 0 0
    endloop
  endfacet
  facet normal -0.994521 -0.104533 -0
    outer loop
      vertex 30 0 20
      vertex 29.3444 6.23735 20
      vertex 30 0 0
    endloop
  endfacet
  facet normal -0.994521 -0.104533 -0
    outer loop
      vertex 29.3444 6.23735 20
      vertex 29.3444 6.23735 0
      vertex 30 0 0
    endloop
  endfacet
  facet normal 0 0 1
    outer loop
      vertex 29.3542 6.23943 20
      vertex 27.4155 12.2062 20
      vertex 29.3444 6.23735 20
    endloop
  endfacet
  facet normal 0 0 1
    outer loop
      vertex 27.4155 12.2062 20
      vertex 27.4064 12.2021 20
      vertex 29.3444 6.23735 20
    endloop
  endfacet
  facet normal 0.951058 0.309014 -0
    outer loop
      vertex 29.3542 6.23943 0
      vertex 27.4155 12.2062 0
      vertex 29.3542 6.23943 20
    endloop
  endfacet
  facet normal 0.951058 0.309014 -0
    outer loop
      vertex 27.4155 12.2062 0
      vertex 27.4155 12.2062 20
      vertex 29.3542 6.23943 20
    endloop
  endfacet
  facet normal 0 0 -1
    outer loop
      vertex 29.3444 6.23735 0
      vertex 27.4064 12.2021 0
      vertex 29.3542 6.23943 0
    endloop
  endfacet
  facet normal 0 0 -1
    outer loop
      vertex 27.4064 12.2021 0
      vertex 27.4155 12.2062 0
      vertex 29.3542 6.23943 0
    endloop
  endfacet
  facet normal -0.95106 -0.309008 -0
    outer loop
      vertex 29.3444 6.23735 20
      vertex 27.4064 12.2021 20
      vertex 29.3444 6.23735 0
    endloop
  endfacet
  facet normal -0.95106 -0.309008 -0
    outer loop
      vertex 27.4064 12.2021 20
      vertex 27.4064 12.2021 0
      vertex 29.3444 6.23735 0
    endloop
  endfacet
  facet normal 0 0 1
    outer loop
      vertex 27.4155 12.2062 20
      vertex 24.2786 17.6394 20
      vertex 27.4064 12.2021 20
    endloop
  endfacet
  facet normal 0 0 1
    outer loop
      vertex 24.2786 17.6394 20
      vertex 24.2705 17.6336 20
      vertex 27.4064 12.2021 20
    endloop
  endfacet
  facet normal 0.866023 0.500005 -0
    outer loop
      vertex 27.4155 12.2062 0
      vertex 24.2786 17.6394 0
      vertex 27.4155 12.2062 20
    endloop
  endfacet
  facet normal 0.866023 0.500005 -0
    outer loop
      vertex 24.2786 17.6394 0
      vertex 24.2786 17.6394 20
      vertex 27.4155 12.2062 20
    endloop
  endfacet
  facet normal 0 0 -1
    outer loop
      vertex 27.4064 12.2021 0
      vertex 24.2705 17.6336 0
      vertex 27.4155 12.2062 0
    endloop
  endfacet
  facet normal 0 0 -1
    outer loop
      vertex 24.2705 17.6336 0
      vertex 24.2786 17.6394 0
      vertex 27.4155 12.2062 0
    endloop
  endfacet
  facet normal -0.866024 -0.500003 -0
    outer loop
      vertex 27.4064 12.2021 20
      vertex 24.2705 17.6336 20
      vertex 27.4064 12.2021 0
    endloop
  endfacet
  facet normal -0.866024 -0.500003 -0
    outer loop
      vertex 24.2705 17.6336 20
      vertex 24.2705 17.6336 0
      vertex 27.4064 12.2021 0
    endloop
  endfacet
  facet normal 0 0 1
    outer loop
      vertex 24.2786 17.6394 20
      vertex 20.0806 22.3018 20
      vertex 24.2705 17.6336 20
    endloop
  endfacet
  facet normal 0 0 1
    outer loop
      vertex 20.0806 22.3018 20
      vertex 20.0739 22.2943 20
      vertex 24.2705 17.6336 20
    endloop
  endfacet
  facet normal 0.743148 0.669127 -0
    outer loop
      vertex 24.2786 17.6394 0
      vertex 20.0806 22.3018 0
      vertex 24.2786 17.6394 20
    endloop
  endfacet
  facet normal 0.743148 0.669127 -0
    outer loop
      vertex 20.0806 22.3018 0
      vertex 20.0806 22.3018 20
      vertex 24.2786 17.6394 20
    endloop
  endfacet
  facet normal 0 0 -1
    outer loop
      vertex 24.2705 17.6336 0
      vertex 20.0739 22.2943 0
      vertex 24.2786 17.6394 0
    endloop
  endfacet
  facet normal 0 0 -1
    outer loop
      vertex 20.0739 22.2943 0
      vertex 20.0806 22.3018 0
      vertex 24.2786 17.6394 0
    endloop
  endfacet
  facet normal -0.743138 -0.669138 -0
    outer loop
      vertex 24.2705 17.6336 20
      vertex 20.0739 22.2943 20
      vertex 24.2705 17.6336 0
    endloop
  endfacet
  facet normal -0.743138 -0.669138 -0
    outer loop
      vertex 20.0739 22.2943 20
      vertex 20.0739 22.2943 0
      vertex 24.2705 17.6336 0
    endloop
  endfacet
  facet normal 0 0 1
    outer loop
      vertex 20.0806 22.3018 20
      vertex 15.005 25.9894 20
      vertex 20.0739 22.2943 20
    endloop
  endfacet
  facet normal 0 0 1
    outer loop
      vertex 15.005 25.9894 20
      vertex 15 25.9808 20
      vertex 20.0739 22.2943 20
    endloop
  endfacet
  facet normal 0.587781 0.80902 -0
    outer loop
      vertex 20.0806 22.3018 0
      vertex 15.005 25.9894 0
      vertex 20.0806 22.3018 20
    endloop
  endfacet
  facet normal 0.587781 0.80902 -0
    outer loop
      vertex 15.005 25.9894 0
      vertex 15.005 25.9894 20
      vertex 20.0806 22.3018 20
    endloop
  endfacet
  facet normal 0 0 -1
    outer loop
      vertex 20.0739 22.2943 0
      vertex 15 25.9808 0
      vertex 20.0806 22.3018 0
    endloop
  endfacet
  facet normal 0 0 -1
    outer loop
      vertex 15 25.9808 0
      vertex 15.005 25.9894 0
      vertex 20.0806 22.3018 0
    endloop
  endfacet
  facet normal -0.587795 -0.80901 -0
    outer loop
      vertex 20.0739 22.2943 20
      vertex 15 25.9808 20
      vertex 20.0739 22.2943 0
    endloop
  endfacet
  facet normal -0.587795 -0.80901 -0
    outer loop
      vertex 15 25.9808 20
      vertex 15 25.9808 0
      vertex 20.0739 22.2943 0
    endloop
  endfacet
endsolid OpenSCAD_Model
