solid OpenSCAD_Model
  facet normal 1 -0 0
    outer loop
      vertex 35 -20 21
      vertex 35 20 19
      vertex 35 20 21
    endloop
  endfacet
  facet normal 1 0 0
    outer loop
      vertex 35 20 19
      vertex 35 -20 21
      vertex 35 -20 19
    endloop
  endfacet
  facet normal -0 0 1
    outer loop
      vertex -35 20 21
      vertex 35 -20 21
      vertex 35 20 21
    endloop
  endfacet
  facet normal 0 0 1
    outer loop
      vertex 35 -20 21
      vertex -35 20 21
      vertex -35 -20 21
    endloop
  endfacet
  facet normal 0 0 -1
    outer loop
      vertex 35 -20 19
      vertex 30 -15 19
      vertex 35 20 19
    endloop
  endfacet
  facet normal 0 0 -1
    outer loop
      vertex 35 -20 19
      vertex -30 -15 19
      vertex 30 -15 19
    endloop
  endfacet
  facet normal -0 0 -1
    outer loop
      vertex -30 -15 19
      vertex -35 -20 19
      vertex -30 15 19
    endloop
  endfacet
  facet normal 0 0 -1
    outer loop
      vertex -35 -20 19
      vertex -30 -15 19
      vertex 35 -20 19
    endloop
  endfacet
  facet normal 0 0 -1
    outer loop
      vertex 30 15 19
      vertex 35 20 19
      vertex 30 -15 19
    endloop
  endfacet
  facet normal 0 0 -1
    outer loop
      vertex -30 15 19
      vertex 35 20 19
      vertex 30 15 19
    endloop
  endfacet
  facet normal 0 0 -1
    outer loop
      vertex -30 15 19
      vertex -35 20 19
      vertex 35 20 19
    endloop
  endfacet
  facet normal 0 0 -1
    outer loop
      vertex -35 20 19
      vertex -30 15 19
      vertex -35 -20 19
    endloop
  endfacet
  facet normal -1 0 0
    outer loop
      vertex -35 -20 19
      vertex -35 20 21
      vertex -35 20 19
    endloop
  endfacet
  facet normal -1 -0 0
    outer loop
      vertex -35 20 21
      vertex -35 -20 19
      vertex -35 -20 21
    endloop
  endfacet
  facet normal 0 1 -0
    outer loop
      vertex 35 20 19
      vertex -35 20 21
      vertex 35 20 21
    endloop
  endfacet
  facet normal 0 1 0
    outer loop
      vertex -35 20 21
      vertex 35 20 19
      vertex -35 20 19
    endloop
  endfacet
  facet normal 0 -1 0
    outer loop
      vertex -35 -20 19
      vertex 35 -20 21
      vertex -35 -20 21
    endloop
  endfacet
  facet normal 0 -1 -0
    outer loop
      vertex 35 -20 21
      vertex -35 -20 19
      vertex 35 -20 19
    endloop
  endfacet
  facet normal 1 -0 0
    outer loop
      vertex 35 -20 -21
      vertex 35 20 -23
      vertex 35 20 -21
    endloop
  endfacet
  facet normal 1 0 0
    outer loop
      vertex 35 20 -23
      vertex 35 -20 -21
      vertex 35 -20 -23
    endloop
  endfacet
  facet normal -0 0 1
    outer loop
      vertex -35 20 -21
      vertex 35 -20 -21
      vertex 35 20 -21
    endloop
  endfacet
  facet normal 0 0 1
    outer loop
      vertex 35 -20 -21
      vertex -35 20 -21
      vertex -35 -20 -21
    endloop
  endfacet
  facet normal 0 0 -1
    outer loop
      vertex -35 -20 -23
      vertex 35 20 -23
      vertex 35 -20 -23
    endloop
  endfacet
  facet normal -0 0 -1
    outer loop
      vertex 35 20 -23
      vertex -35 -20 -23
      vertex -35 20 -23
    endloop
  endfacet
  facet normal -1 0 0
    outer loop
      vertex -35 -20 -23
      vertex -35 20 -21
      vertex -35 20 -23
    endloop
  endfacet
  facet normal -1 -0 0
    outer loop
      vertex -35 20 -21
      vertex -35 -20 -23
      vertex -35 -20 -21
    endloop
  endfacet
  facet normal 0 1 -0
    outer loop
      vertex 35 20 -23
      vertex -35 20 -21
      vertex 35 20 -21
    endloop
  endfacet
  facet normal 0 1 0
    outer loop
      vertex -35 20 -21
      vertex 35 20 -23
      vertex -35 20 -23
    endloop
  endfacet
  facet normal 0 -1 0
    outer loop
      vertex -35 -20 -23
      vertex 35 -20 -21
      vertex -35 -20 -21
    endloop
  endfacet
  facet normal 0 -1 -0
    outer loop
      vertex 35 -20 -21
      vertex -35 -20 -23
      vertex 35 -20 -23
    endloop
  endfacet
  facet normal 1 -0 0
    outer loop
      vertex 30 -15 19
      vertex 30 15 -20
      vertex 30 15 19
    endloop
  endfacet
  facet normal 1 0 0
    outer loop
      vertex 30 15 -20
      vertex 30 -15 19
      vertex 30 -15 -20
    endloop
  endfacet
  facet normal 0 0 -1
    outer loop
      vertex -30 -15 -20
      vertex 30 15 -20
      vertex 30 -15 -20
    endloop
  endfacet
  facet normal -0 0 -1
    outer loop
      vertex 30 15 -20
      vertex -30 -15 -20
      vertex -30 15 -20
    endloop
  endfacet
  facet normal -1 0 0
    outer loop
      vertex -30 -15 -20
      vertex -30 15 19
      vertex -30 15 -20
    endloop
  endfacet
  facet normal -1 -0 0
    outer loop
      vertex -30 15 19
      vertex -30 -15 -20
      vertex -30 -15 19
    endloop
  endfacet
  facet normal 0 1 -0
    outer loop
      vertex 30 15 -20
      vertex -30 15 19
      vertex 30 15 19
    endloop
  endfacet
  facet normal 0 1 0
    outer loop
      vertex -30 15 19
      vertex 30 15 -20
      vertex -30 15 -20
    endloop
  endfacet
  facet normal 0 -1 0
    outer loop
      vertex -30 -15 -20
      vertex 30 -15 19
      vertex -30 -15 19
    endloop
  endfacet
  facet normal 0 -1 -0
    outer loop
      vertex 30 -15 19
      vertex -30 -15 -20
      vertex 30 -15 -20
    endloop
  endfacet
endsolid OpenSCAD_Model
