solid OpenSCAD_Model
  facet normal -0 0 -1
    outer loop
      vertex 10 10 0
      vertex 7 2 0
      vertex 5 12 0
    endloop
  endfacet
  facet normal 0 0 -1
    outer loop
      vertex -1 12 0
      vertex 1 14 0
      vertex 3 14 0
    endloop
  endfacet
  facet normal 0 0 -1
    outer loop
      vertex -1.5 10 0
      vertex -1 12 0
      vertex 5 12 0
    endloop
  endfacet
  facet normal 0 0 -1
    outer loop
      vertex 5 12 0
      vertex -1 12 0
      vertex 3 14 0
    endloop
  endfacet
  facet normal 0 0 -1
    outer loop
      vertex -1 8 0
      vertex -1.5 10 0
      vertex 5 12 0
    endloop
  endfacet
  facet normal 0 0 -1
    outer loop
      vertex 0 6 0
      vertex -1 8 0
      vertex 5 12 0
    endloop
  endfacet
  facet normal 0 0 -1
    outer loop
      vertex 7 2 0
      vertex 0 6 0
      vertex 5 12 0
    endloop
  endfacet
  facet normal -0 0 -1
    outer loop
      vertex 7 2 0
      vertex 5 0 0
      vertex 0 6 0
    endloop
  endfacet
  facet normal 0 0 -1
    outer loop
      vertex 0 6 0
      vertex 5 0 0
      vertex 0 0 0
    endloop
  endfacet
  facet normal 0 0 1
    outer loop
      vertex 5 12 2
      vertex 7 2 2
      vertex 10 10 2
    endloop
  endfacet
  facet normal 0 0 1
    outer loop
      vertex 3 14 2
      vertex 1 14 2
      vertex -1 12 2
    endloop
  endfacet
  facet normal 0 0 1
    outer loop
      vertex 5 12 2
      vertex -1 12 2
      vertex -1.5 10 2
    endloop
  endfacet
  facet normal 0 0 1
    outer loop
      vertex 3 14 2
      vertex -1 12 2
      vertex 5 12 2
    endloop
  endfacet
  facet normal 0 0 1
    outer loop
      vertex 5 12 2
      vertex -1.5 10 2
      vertex -1 8 2
    endloop
  endfacet
  facet normal 0 0 1
    outer loop
      vertex 5 12 2
      vertex -1 8 2
      vertex 0 6 2
    endloop
  endfacet
  facet normal 0 0 1
    outer loop
      vertex 5 12 2
      vertex 0 6 2
      vertex 7 2 2
    endloop
  endfacet
  facet normal 0 0 1
    outer loop
      vertex 0 6 2
      vertex 5 0 2
      vertex 7 2 2
    endloop
  endfacet
  facet normal 0 0 1
    outer loop
      vertex 0 0 2
      vertex 5 0 2
      vertex 0 6 2
    endloop
  endfacet
  facet normal 0.936329 -0.351123 0
    outer loop
      vertex 10 10 0
      vertex 7 2 2
      vertex 7 2 0
    endloop
  endfacet
  facet normal 0.936329 -0.351123 0
    outer loop
      vertex 10 10 0
      vertex 10 10 2
      vertex 7 2 2
    endloop
  endfacet
  facet normal 0.371391 0.928477 0
    outer loop
      vertex 5 12 0
      vertex 10 10 2
      vertex 10 10 0
    endloop
  endfacet
  facet normal 0.371391 0.928477 -0
    outer loop
      vertex 5 12 0
      vertex 5 12 2
      vertex 10 10 2
    endloop
  endfacet
  facet normal 0.707107 0.707107 0
    outer loop
      vertex 3 14 0
      vertex 5 12 2
      vertex 5 12 0
    endloop
  endfacet
  facet normal 0.707107 0.707107 -0
    outer loop
      vertex 3 14 0
      vertex 3 14 2
      vertex 5 12 2
    endloop
  endfacet
  facet normal 0 1 0
    outer loop
      vertex 1 14 0
      vertex 3 14 2
      vertex 3 14 0
    endloop
  endfacet
  facet normal 0 1 0
    outer loop
      vertex 1 14 0
      vertex 1 14 2
      vertex 3 14 2
    endloop
  endfacet
  facet normal -0.707107 0.707107 0
    outer loop
      vertex -1 12 0
      vertex 1 14 2
      vertex 1 14 0
    endloop
  endfacet
  facet normal -0.707107 0.707107 0
    outer loop
      vertex -1 12 0
      vertex -1 12 2
      vertex 1 14 2
    endloop
  endfacet
  facet normal -0.970143 0.242536 0
    outer loop
      vertex -1.5 10 0
      vertex -1 12 2
      vertex -1 12 0
    endloop
  endfacet
  facet normal -0.970143 0.242536 0
    outer loop
      vertex -1.5 10 0
      vertex -1.5 10 2
      vertex -1 12 2
    endloop
  endfacet
  facet normal -0.970143 -0.242536 0
    outer loop
      vertex -1 8 0
      vertex -1.5 10 2
      vertex -1.5 10 0
    endloop
  endfacet
  facet normal -0.970143 -0.242536 0
    outer loop
      vertex -1 8 0
      vertex -1 8 2
      vertex -1.5 10 2
    endloop
  endfacet
  facet normal -0.894427 -0.447214 0
    outer loop
      vertex 0 6 0
      vertex -1 8 2
      vertex -1 8 0
    endloop
  endfacet
  facet normal -0.894427 -0.447214 0
    outer loop
      vertex 0 6 0
      vertex 0 6 2
      vertex -1 8 2
    endloop
  endfacet
  facet normal -1 0 0
    outer loop
      vertex 0 0 0
      vertex 0 6 2
      vertex 0 6 0
    endloop
  endfacet
  facet normal -1 0 0
    outer loop
      vertex 0 0 0
      vertex 0 0 2
      vertex 0 6 2
    endloop
  endfacet
  facet normal 0 -1 0
    outer loop
      vertex 5 0 0
      vertex 0 0 2
      vertex 0 0 0
    endloop
  endfacet
  facet normal 0 -1 0
    outer loop
      vertex 5 0 0
      vertex 5 0 2
      vertex 0 0 2
    endloop
  endfacet
  facet normal 0.707107 -0.707107 0
    outer loop
      vertex 7 2 0
      vertex 5 0 2
      vertex 5 0 0
    endloop
  endfacet
  facet normal 0.707107 -0.707107 0
    outer loop
      vertex 7 2 0
      vertex 7 2 2
      vertex 5 0 2
    endloop
  endfacet
endsolid OpenSCAD_Model
